<?xml version="1.0" encoding="UTF-8"?>
<svg xmlns="http://www.w3.org/2000/svg" xmlns:xlink="http://www.w3.org/1999/xlink" version="1.1" viewBox="0 0 171 48">
  <defs>
    <style>
      .cls-1 {
        fill: none;
      }

      .cls-2 {
        fill: #212121;
      }

      .cls-3 {
        clip-path: url(#clippath-11);
      }

      .cls-4 {
        clip-path: url(#clippath-16);
      }

      .cls-5 {
        clip-path: url(#clippath-10);
      }

      .cls-6 {
        clip-path: url(#clippath-15);
      }

      .cls-7 {
        clip-path: url(#clippath-13);
      }

      .cls-8 {
        clip-path: url(#clippath-14);
      }

      .cls-9 {
        clip-path: url(#clippath-12);
      }

      .cls-10 {
        clip-path: url(#clippath-1);
      }

      .cls-11 {
        clip-path: url(#clippath-3);
      }

      .cls-12 {
        clip-path: url(#clippath-4);
      }

      .cls-13 {
        clip-path: url(#clippath-2);
      }

      .cls-14 {
        clip-path: url(#clippath-7);
      }

      .cls-15 {
        clip-path: url(#clippath-6);
      }

      .cls-16 {
        clip-path: url(#clippath-9);
      }

      .cls-17 {
        clip-path: url(#clippath-8);
      }

      .cls-18 {
        clip-path: url(#clippath-5);
      }

      .cls-19 {
        fill: #e98a13;
      }

      .cls-20 {
        fill: #d1d1d1;
      }

      .cls-21 {
        clip-path: url(#clippath);
      }
    </style>
    <clipPath id="clippath">
      <path class="cls-1" d="M64.5,15.3v-2.1h-3v2.1h3ZM64.5,19.1v-2h-3v.7c0,.3,0,.8,0,1.4h3.1ZM66.4,11.2v12.2c0,.6,0,1.1-.2,1.4-.2.3-.4.5-.8.7-.4,0-.9.2-1.5.2s-.9,0-1.4,0l-.4-1.9c.7,0,1.2.1,1.7.1s.4,0,.6-.2c0-.1.1-.3.1-.7v-2h-3.2c-.1,1-.4,1.8-.7,2.6-.3.7-.8,1.5-1.4,2.4l-1.7-1.2c.6-.8,1.1-1.5,1.4-2.1.3-.6.5-1.3.6-2.1,0-.8.1-2.1.1-3.7v-5.6h6.9ZM54.3,18.3v3.3h2v-3.3h-2ZM56.3,16.4v-3h-2v3h2ZM52.6,11.5h5.5v12.1h-5.5v-12.1Z"/>
    </clipPath>
    <clipPath id="clippath-1">
      <path class="cls-1" d="M84.6,20.4h-1v3.7c.2,0,.4,0,.6,0s.3,0,.4-.2c0,0,0-.3,0-.5v-3ZM84.2,11.4h1.8v3.6h-9v-3.6h1.8v2h1.8v-2.9h1.8v2.9h1.8v-2ZM86.5,17.7h-4.3c0,.3-.2.7-.4,1.1h4.5v5.2c0,.5,0,.8-.2,1.1-.1.3-.3.4-.5.5-.2,0-.6.1-1,.1s-.8,0-1.2,0l-.2-1h-1.2v-4.3h-1.1v4.5h-1.5v-4.5h-1v5.3h-1.7v-6.9h3.1c.2-.5.3-.9.3-1.1h-3.4v-1.6h9.7v1.6ZM74.9,21.4h.4c0,0,.8-.3.8-.3l.2,1.9c-1.9.5-3.4,1-4.5,1.3l-.4-1.9,1.8-.5v-3.6h-1.2v-1.8h1.2v-2.9h-1.5v-1.9h4.6v1.9h-1.4v2.9h1.1v1.8h-1.1v3.2Z"/>
    </clipPath>
    <clipPath id="clippath-2">
      <path class="cls-1" d="M99.9,20.2v3.2h1.9l-1-.9c.9-1,1.6-1.7,2.1-2.4h-2.9ZM95.8,15.2h6.2c-1.3-.8-2.4-1.6-3.1-2.5-.7.9-1.7,1.7-3,2.5ZM94.9,20.2l.7.8,1.4,1.6-1.1.8h1.9v-3.2h-3ZM104.5,21c-.8,1-1.5,1.8-2.1,2.4h3.6v1.8h-14.3v-1.8h3.6c-.9-1.1-1.6-1.9-2-2.3l1.1-1h-1.9v-1.9h5.2v-1.3h-3.3v-1c-.7.4-1.5.8-2.4,1.1l-.9-1.8c1.6-.6,3-1.2,4.1-2,1.1-.8,2.1-1.7,2.9-2.7h1.6c1.5,2.1,3.8,3.6,6.9,4.6l-.8,1.9c-.8-.3-1.7-.7-2.6-1.1v1.2h-3.3v1.3h5.3v1.9h-1.9l1.2.7Z"/>
    </clipPath>
    <clipPath id="clippath-3">
      <path class="cls-1" d="M121.5,20.3v3h4.4v2h-14.7v-2h4.4v-3l-1.5.8c-.4-1-.8-2.2-1.4-3.5-.6-1.3-1-2.4-1.4-3.2l1.9-.8c.3.6.7,1.4,1.2,2.5s.9,2.1,1.3,3v-8.2h2.1v12.4h1.7v-12.4h2.1v8.4c.4-.9.9-1.9,1.3-2.9.5-1,.8-2,1.1-2.8l2,.8c-.3.9-.8,2-1.4,3.3-.6,1.4-1.1,2.5-1.6,3.3l-1.4-.7Z"/>
    </clipPath>
    <clipPath id="clippath-4">
      <polygon class="cls-1" points="57.2 31.2 57.7 31.2 57.7 36 57.1 36 57.1 32.4 55.6 34.8 55.3 34.8 53.7 32.4 53.7 36 53.2 36 53.2 31.2 53.7 31.2 55.4 34.1 57.2 31.2"/>
    </clipPath>
    <clipPath id="clippath-5">
      <path class="cls-1" d="M62.6,36h-.6v-3.4h.6v3.4ZM62,31.9c0,0,0-.2,0-.3s0-.2,0-.3c0,0,.2,0,.3,0s.2,0,.3,0c0,0,0,.2,0,.3s0,.2,0,.3c0,0-.2,0-.3,0s-.2,0-.3,0Z"/>
    </clipPath>
    <clipPath id="clippath-6">
      <path class="cls-1" d="M69.4,32.9c.2.2.3.6.3,1v2.1h-.6v-1.9c0-.3,0-.6-.2-.8s-.3-.3-.6-.3-.3,0-.5,0c-.1,0-.3.2-.4.3,0,.2-.1.3-.1.6v1.9h-.6v-3.4h.5c0,.2,0,.4,0,.6,0-.2.3-.4.5-.5.2,0,.4-.2.7-.2.4,0,.7.1.9.4Z"/>
    </clipPath>
    <clipPath id="clippath-7">
      <path class="cls-1" d="M76.1,35.3c.2-.2.3-.5.3-1s0-.8-.3-1c-.2-.2-.5-.3-.7-.3s-.5,0-.7.3c-.2.2-.3.5-.3.9s0,.7.3.9c.2.2.4.3.7.3s.5,0,.7-.3ZM76.9,32.6v3.2c0,.7-.2,1.1-.5,1.4-.3.3-.7.4-1.1.4s-.6,0-.9-.2c-.3-.1-.4-.4-.5-.6l.5-.3c.2.4.5.6,1,.6s.6,0,.8-.3c.2-.2.3-.5.3-1v-.3c-.1.2-.3.4-.5.5-.2,0-.4.2-.6.2s-.5,0-.7-.2c-.2-.1-.4-.4-.6-.6-.1-.3-.2-.6-.2-1s0-.7.2-1c.1-.3.3-.5.6-.6.2-.1.5-.2.7-.2s.5,0,.7.2c.2,0,.4.3.5.5,0-.2,0-.4,0-.6h.5Z"/>
    </clipPath>
    <clipPath id="clippath-8">
      <path class="cls-1" d="M82.9,32.6c0,0,.2,0,.2,0l-.2.5c0,0-.2,0-.3,0-.3,0-.5,0-.6.3-.2.2-.2.5-.2.9v1.7h-.6v-3.4h.5c0,.2,0,.4,0,.6.2-.4.5-.6.9-.6s.2,0,.3,0Z"/>
    </clipPath>
    <clipPath id="clippath-9">
      <path class="cls-1" d="M89.2,32.6h.6v3.4h-.5c0-.2,0-.4,0-.6,0,.2-.3.4-.5.5-.2,0-.4.2-.7.2-.4,0-.7-.1-.9-.4-.2-.2-.3-.6-.3-1v-2.1h.6v1.9c0,.3,0,.6.2.8.1.2.3.3.6.3s.3,0,.5-.1c.1,0,.3-.2.4-.3,0-.2.1-.3.1-.6v-1.9h0Z"/>
    </clipPath>
    <clipPath id="clippath-10">
      <path class="cls-1" d="M94.6,36h-.6v-3.4h.6v3.4ZM94,31.9c0,0,0-.2,0-.3s0-.2,0-.3c0,0,.2,0,.3,0s.2,0,.3,0c0,0,0,.2,0,.3s0,.2,0,.3c0,0-.2,0-.3,0s-.2,0-.3,0Z"/>
    </clipPath>
    <clipPath id="clippath-11">
      <path class="cls-1" d="M106.1,34v-.5h1.6v1.9c-.1.2-.4.4-.7.5-.3.2-.6.2-1,.2s-.9,0-1.2-.3c-.4-.2-.6-.5-.8-.9-.2-.4-.3-.8-.3-1.3s0-.9.3-1.3c.2-.4.5-.7.8-.9.4-.2.7-.3,1.1-.3s.7,0,1,.2c.3.2.5.4.7.7l-.5.3c0-.2-.3-.4-.5-.5-.2-.1-.5-.2-.7-.2s-.6,0-.9.2c-.3.2-.4.4-.6.7-.1.3-.2.6-.2,1s0,.7.2,1c.1.3.4.5.6.7.3.2.6.2.9.2s.8-.1,1-.4v-1.1h-1.1Z"/>
    </clipPath>
    <clipPath id="clippath-12">
      <path class="cls-1" d="M112.3,35c0,.2.2.3.4.4.2,0,.3.2.5.2s.4,0,.5-.2c.2,0,.3-.2.4-.4,0-.2.1-.4.1-.7s0-.5-.1-.7c0-.2-.2-.3-.4-.4s-.3-.2-.5-.2-.4,0-.5.2-.3.2-.4.4c0,.2-.1.4-.1.7s0,.5.1.7ZM111.8,33.4c.2-.3.4-.5.6-.6.3-.2.5-.2.8-.2s.6,0,.8.2c.3.2.5.4.6.6.2.3.2.6.2.9s0,.7-.2.9c-.2.3-.4.5-.6.6-.3.2-.5.2-.8.2s-.6,0-.8-.2c-.3-.2-.5-.4-.6-.6-.2-.3-.2-.6-.2-.9s0-.7.2-.9Z"/>
    </clipPath>
    <clipPath id="clippath-13">
      <rect class="cls-1" x="118.9" y="31" width=".6" height="5"/>
    </clipPath>
    <clipPath id="clippath-14">
      <path class="cls-1" d="M125.9,35.3c.2-.2.3-.5.3-1s0-.8-.3-1c-.2-.2-.5-.3-.7-.3s-.5,0-.7.3c-.2.2-.3.5-.3.9s0,.7.3.9.4.3.7.3.5,0,.7-.3ZM126.2,31h.6v5h-.5c0-.2,0-.4,0-.6-.1.2-.3.4-.5.5-.2,0-.4.2-.7.2s-.5,0-.7-.2c-.2-.1-.4-.3-.6-.6s-.2-.6-.2-1,0-.7.2-1c.1-.3.3-.5.6-.6.2-.2.5-.2.7-.2s.4,0,.6.2c.2,0,.4.3.5.5v-2.1Z"/>
    </clipPath>
    <clipPath id="clippath-15">
      <path class="cls-1" d="M18.6,39.3c-6.1-6.5-6.8-16.1-1.4-22.3,3.7-4.3,9.4-5.8,15-4.8l-1.1-2.5c-6.9-4-15-4-20.1.8-6.7,6.2-5.8,17.9,2,26.2,2,2.2,4.3,3.9,6.8,5.2l-1.1-2.6Z"/>
    </clipPath>
    <clipPath id="clippath-16">
      <path class="cls-1" d="M33.3,9.4c6.1,6.5,6.8,16.1,1.4,22.3-3.7,4.3-9.4,5.8-15,4.8l1.1,2.5c6.9,4,15,4,20.1-.8,6.7-6.2,5.8-17.9-2-26.2-2-2.2-4.3-3.9-6.8-5.2l1.1,2.6Z"/>
    </clipPath>
  </defs>
  <!-- Generator: Adobe Illustrator 28.6.0, SVG Export Plug-In . SVG Version: 1.2.0 Build 709)  -->
  <g>
    <g id="_图层_1" data-name="图层_1">
      <g id="_页面-1" data-name="页面-1">
        <g id="_个人中心-账户" data-name="个人中心-账户">
          <g id="logo">
            <rect id="_矩形" data-name="矩形" class="cls-1" y="0" width="171" height="48"/>
            <g class="cls-21">
              <rect class="cls-2" x="52.2" y="10.9" width="14.5" height="15.4"/>
            </g>
            <g class="cls-10">
              <rect class="cls-2" x="71.1" y="10.2" width="15.7" height="15.9"/>
            </g>
            <g class="cls-13">
              <rect class="cls-2" x="90.9" y="10.3" width="16.1" height="15.3"/>
            </g>
            <g class="cls-11">
              <rect class="cls-2" x="110.9" y="10.5" width="15.3" height="15"/>
            </g>
            <g class="cls-12">
              <rect class="cls-2" x="52.8" y="30.9" width="5.2" height="5.4"/>
            </g>
            <g class="cls-18">
              <rect class="cls-2" x="61.6" y="30.9" width="1.4" height="5.4"/>
            </g>
            <g class="cls-15">
              <rect class="cls-2" x="66.5" y="32.2" width="3.5" height="4.2"/>
            </g>
            <g class="cls-14">
              <rect class="cls-2" x="73.4" y="32.2" width="3.8" height="5.7"/>
            </g>
            <g class="cls-17">
              <rect class="cls-2" x="80.9" y="32.2" width="2.6" height="4.1"/>
            </g>
            <g class="cls-16">
              <rect class="cls-2" x="86.6" y="32.3" width="3.5" height="4.1"/>
            </g>
            <g class="cls-5">
              <rect class="cls-2" x="93.6" y="30.9" width="1.4" height="5.4"/>
            </g>
            <g class="cls-3">
              <rect class="cls-2" x="103.4" y="30.7" width="4.6" height="5.7"/>
            </g>
            <g class="cls-9">
              <rect class="cls-2" x="111.3" y="32.2" width="3.9" height="4.2"/>
            </g>
            <g class="cls-7">
              <rect class="cls-2" x="118.6" y="30.7" width="1.2" height="5.6"/>
            </g>
            <g class="cls-8">
              <rect class="cls-2" x="123.3" y="30.7" width="3.8" height="5.7"/>
            </g>
            <g class="cls-6">
              <rect class="cls-19" x="6" y="6.4" width="26.5" height="35.8"/>
            </g>
            <g class="cls-4">
              <rect class="cls-20" x="19.4" y="6.5" width="28.5" height="35.9"/>
            </g>
          </g>
        </g>
      </g>
    </g>
  </g>
</svg>