<?xml version="1.0" encoding="UTF-8"?>
<svg xmlns="http://www.w3.org/2000/svg" xmlns:xlink="http://www.w3.org/1999/xlink" version="1.1" viewBox="0 0 171 48">
  <defs>
    <style>
      .cls-1 {
        fill: none;
      }

      .cls-2 {
        clip-path: url(#clippath-11);
      }

      .cls-3 {
        clip-path: url(#clippath-16);
      }

      .cls-4 {
        clip-path: url(#clippath-10);
      }

      .cls-5 {
        clip-path: url(#clippath-15);
      }

      .cls-6 {
        clip-path: url(#clippath-13);
      }

      .cls-7 {
        clip-path: url(#clippath-14);
      }

      .cls-8 {
        clip-path: url(#clippath-12);
      }

      .cls-9 {
        clip-path: url(#clippath-1);
      }

      .cls-10 {
        clip-path: url(#clippath-3);
      }

      .cls-11 {
        clip-path: url(#clippath-4);
      }

      .cls-12 {
        clip-path: url(#clippath-2);
      }

      .cls-13 {
        clip-path: url(#clippath-7);
      }

      .cls-14 {
        clip-path: url(#clippath-6);
      }

      .cls-15 {
        clip-path: url(#clippath-9);
      }

      .cls-16 {
        clip-path: url(#clippath-8);
      }

      .cls-17 {
        clip-path: url(#clippath-5);
      }

      .cls-18 {
        fill: #fff;
      }

      .cls-19 {
        fill: #e98a13;
      }

      .cls-20 {
        fill: #d1d1d1;
      }

      .cls-21 {
        clip-path: url(#clippath);
      }
    </style>
    <clipPath id="clippath">
      <path class="cls-1" d="M65.4,14.8v-2.2h-3.1v2.2h3.1ZM65.4,18.7v-2.1h-3.1v.7c0,.3,0,.8,0,1.4h3.1ZM67.3,10.6v12.4c0,.6,0,1.1-.2,1.4-.2.3-.4.5-.8.7-.4,0-.9.2-1.6.2s-.9,0-1.4,0l-.4-1.9c.7,0,1.3.1,1.7.1s.4,0,.6-.2c0-.1.1-.3.1-.7v-2h-3.3c-.1,1-.4,1.9-.7,2.6-.3.7-.8,1.6-1.4,2.4l-1.8-1.3c.6-.8,1.1-1.5,1.4-2.1.3-.6.5-1.3.6-2.2,0-.8.1-2.1.1-3.7v-5.7h7ZM55.1,17.9v3.4h2v-3.4h-2ZM57.1,15.9v-3h-2v3h2ZM53.3,11h5.6v12.2h-5.6v-12.2Z"/>
    </clipPath>
    <clipPath id="clippath-1">
      <path class="cls-1" d="M85.8,20h-1.1v3.7c.2,0,.4,0,.6,0s.3,0,.4-.2c0,0,0-.3,0-.5v-3.1ZM85.4,10.8h1.8v3.7h-9.2v-3.7h1.9v2h1.9v-2.9h1.8v2.9h1.9v-2ZM87.7,17.2h-4.3c0,.3-.2.7-.4,1.2h4.6v5.3c0,.5,0,.8-.2,1.1-.1.3-.3.4-.5.5-.2,0-.6.1-1,.1s-.8,0-1.3,0l-.2-1.1h-1.2v-4.3h-1.1v4.5h-1.6v-4.5h-1v5.4h-1.7v-7h3.1c.2-.5.3-.9.3-1.2h-3.5v-1.7h9.9v1.7ZM76,21h.4c0,0,.8-.3.8-.3l.2,1.9c-1.9.5-3.5,1-4.6,1.3l-.4-1.9,1.8-.5v-3.7h-1.2v-1.8h1.2v-3h-1.5v-1.9h4.7v1.9h-1.4v3h1.2v1.8h-1.2v3.2Z"/>
    </clipPath>
    <clipPath id="clippath-2">
      <path class="cls-1" d="M101.3,19.8v3.3h1.9l-1.1-.9c.9-1,1.6-1.8,2.1-2.4h-2.9ZM97.2,14.7h6.3c-1.3-.8-2.4-1.7-3.2-2.6-.7.9-1.8,1.7-3.1,2.6ZM96.3,19.8l.7.8,1.5,1.6-1.1.8h2v-3.3h-3.1ZM106,20.6c-.8,1-1.5,1.8-2.1,2.5h3.7v1.8h-14.5v-1.8h3.7c-.9-1.1-1.6-1.9-2.1-2.3l1.2-1h-1.9v-1.9h5.3v-1.3h-3.4v-1.1c-.7.4-1.6.8-2.5,1.1l-.9-1.8c1.7-.6,3.1-1.3,4.2-2,1.1-.8,2.1-1.7,2.9-2.8h1.6c1.6,2.1,3.9,3.7,7,4.7l-.8,1.9c-.8-.3-1.7-.7-2.6-1.1v1.2h-3.4v1.3h5.4v1.9h-1.9l1.2.7Z"/>
    </clipPath>
    <clipPath id="clippath-3">
      <path class="cls-1" d="M123.3,19.8v3h4.5v2h-14.9v-2h4.5v-3.1l-1.6.8c-.4-1-.8-2.2-1.4-3.5-.6-1.3-1.1-2.5-1.5-3.3l1.9-.8c.3.6.7,1.4,1.2,2.6s.9,2.2,1.3,3.1v-8.3h2.1v12.6h1.7v-12.6h2.1v8.6c.4-.9.9-1.9,1.3-3,.5-1.1.8-2,1.2-2.9l2,.8c-.3.9-.8,2-1.5,3.4-.6,1.4-1.2,2.5-1.6,3.4l-1.4-.7Z"/>
    </clipPath>
    <clipPath id="clippath-4">
      <polygon class="cls-1" points="58 31 58.5 31 58.5 35.8 57.9 35.8 57.9 32.1 56.4 34.6 56 34.6 54.5 32.1 54.5 35.8 53.9 35.8 53.9 31 54.4 31 56.2 33.9 58 31"/>
    </clipPath>
    <clipPath id="clippath-5">
      <path class="cls-1" d="M63.4,35.8h-.6v-3.5h.6v3.5ZM62.9,31.6c0,0,0-.2,0-.3s0-.2,0-.3c0,0,.2,0,.3,0s.2,0,.3,0c0,0,0,.2,0,.3s0,.2,0,.3c0,0-.2,0-.3,0s-.2,0-.3,0Z"/>
    </clipPath>
    <clipPath id="clippath-6">
      <path class="cls-1" d="M70.4,32.7c.2.2.3.6.3,1v2.1h-.6v-2c0-.3,0-.6-.2-.8s-.3-.3-.6-.3-.3,0-.5,0c-.1,0-.3.2-.4.3,0,.2-.1.3-.1.6v2h-.6v-3.4h.5c0,.2,0,.4,0,.6,0-.2.3-.4.5-.5.2,0,.4-.2.7-.2.4,0,.7.1.9.4Z"/>
    </clipPath>
    <clipPath id="clippath-7">
      <path class="cls-1" d="M77.2,35.1c.2-.2.3-.5.3-1s0-.8-.3-1c-.2-.2-.5-.3-.7-.3s-.5,0-.7.3c-.2.2-.3.5-.3.9s0,.7.3.9c.2.2.4.3.7.3s.5,0,.7-.3ZM78,32.4v3.2c0,.7-.2,1.1-.5,1.4-.3.3-.7.4-1.1.4s-.6,0-.9-.2c-.3-.1-.4-.4-.5-.6l.5-.3c.2.4.5.6,1,.6s.6,0,.8-.3c.2-.2.3-.5.3-1v-.3c-.1.2-.3.4-.5.5-.2,0-.4.2-.6.2s-.5,0-.7-.2c-.2-.1-.4-.4-.6-.6-.1-.3-.2-.6-.2-1s0-.7.2-1c.1-.3.3-.5.6-.6.2-.1.5-.2.7-.2s.5,0,.7.2c.2,0,.4.3.5.5,0-.2,0-.4,0-.6h.5Z"/>
    </clipPath>
    <clipPath id="clippath-8">
      <path class="cls-1" d="M84.1,32.3c0,0,.2,0,.2,0l-.2.5c0,0-.2,0-.3,0-.3,0-.5,0-.6.3-.2.2-.2.5-.2.9v1.8h-.6v-3.5h.5c0,.2,0,.4,0,.6.2-.4.5-.6.9-.6s.2,0,.3,0Z"/>
    </clipPath>
    <clipPath id="clippath-9">
      <path class="cls-1" d="M90.5,32.4h.6v3.5h-.5c0-.2,0-.4,0-.6,0,.2-.3.4-.5.5-.2,0-.4.2-.7.2-.4,0-.7-.1-.9-.4-.2-.2-.3-.6-.3-1v-2.1h.6v2c0,.3,0,.6.2.8.1.2.3.3.6.3s.3,0,.5-.1c.1,0,.3-.2.4-.3,0-.2.1-.3.1-.6v-2h0Z"/>
    </clipPath>
    <clipPath id="clippath-10">
      <path class="cls-1" d="M96,35.8h-.6v-3.5h.6v3.5ZM95.4,31.6c0,0,0-.2,0-.3s0-.2,0-.3c0,0,.2,0,.3,0s.2,0,.3,0c0,0,0,.2,0,.3s0,.2,0,.3c0,0-.2,0-.3,0s-.2,0-.3,0Z"/>
    </clipPath>
    <clipPath id="clippath-11">
      <path class="cls-1" d="M107.6,33.8v-.5h1.6v1.9c-.1.2-.4.4-.7.5-.3.2-.6.2-1,.2s-.9,0-1.2-.3c-.4-.2-.6-.5-.8-.9-.2-.4-.3-.8-.3-1.3s0-.9.3-1.3c.2-.4.5-.7.8-.9.4-.2.7-.3,1.2-.3s.7,0,1,.2c.3.2.5.4.7.7l-.5.3c0-.2-.3-.4-.5-.5-.2-.1-.5-.2-.7-.2s-.6,0-.9.2c-.3.2-.4.4-.6.7-.1.3-.2.6-.2,1s0,.7.2,1c.1.3.4.5.6.7.3.2.6.2.9.2s.8-.1,1-.4v-1.2h-1.1Z"/>
    </clipPath>
    <clipPath id="clippath-12">
      <path class="cls-1" d="M114,34.8c0,.2.2.3.4.4.2,0,.3.2.5.2s.4,0,.5-.2c.2,0,.3-.2.4-.4,0-.2.1-.4.1-.7s0-.5-.1-.7c0-.2-.2-.3-.4-.4s-.3-.2-.5-.2-.4,0-.5.2-.3.2-.4.4c0,.2-.1.4-.1.7s0,.5.1.7ZM113.5,33.2c.2-.3.4-.5.6-.6.3-.2.5-.2.8-.2s.6,0,.8.2c.3.2.5.4.6.6.2.3.2.6.2.9s0,.7-.2.9c-.2.3-.4.5-.6.6-.3.2-.5.2-.8.2s-.6,0-.8-.2c-.3-.2-.5-.4-.6-.6-.2-.3-.2-.6-.2-.9s0-.7.2-.9Z"/>
    </clipPath>
    <clipPath id="clippath-13">
      <rect class="cls-1" x="120.7" y="30.8" width=".6" height="5.1"/>
    </clipPath>
    <clipPath id="clippath-14">
      <path class="cls-1" d="M127.7,35.1c.2-.2.3-.5.3-1s0-.8-.3-1c-.2-.2-.5-.3-.7-.3s-.5,0-.7.3c-.2.2-.3.5-.3.9s0,.7.3.9.4.3.7.3.5,0,.7-.3ZM128.1,30.8h.6v5.1h-.5c0-.2,0-.4,0-.6-.1.2-.3.4-.5.5-.2,0-.4.2-.7.2s-.5,0-.7-.2c-.2-.1-.4-.3-.6-.6s-.2-.6-.2-1,0-.7.2-1c.1-.3.3-.5.6-.6.2-.2.5-.2.7-.2s.4,0,.6.2c.2,0,.4.3.5.5v-2.1Z"/>
    </clipPath>
    <clipPath id="clippath-15">
      <path class="cls-1" d="M18.8,39.2c-6.2-6.6-6.9-16.3-1.4-22.6,3.8-4.3,9.6-5.9,15.2-4.8l-1.1-2.6c-7.1-4.1-15.2-4-20.4.8-6.8,6.3-5.9,18.2,2,26.6,2.1,2.2,4.4,4,6.9,5.3l-1.1-2.6Z"/>
    </clipPath>
    <clipPath id="clippath-16">
      <path class="cls-1" d="M33.7,8.8c6.2,6.6,6.9,16.3,1.4,22.6-3.8,4.3-9.6,5.9-15.2,4.8l1.1,2.6c7.1,4.1,15.2,4,20.4-.8,6.8-6.3,5.9-18.2-2-26.6-2.1-2.2-4.4-4-6.9-5.3l1.1,2.6Z"/>
    </clipPath>
  </defs>
  <!-- Generator: Adobe Illustrator 28.6.0, SVG Export Plug-In . SVG Version: 1.2.0 Build 709)  -->
  <g>
    <g id="_图层_1" data-name="图层_1">
      <g id="_页面-1" data-name="页面-1">
        <g id="_个人中心-账户" data-name="个人中心-账户">
          <g id="logo">
            <rect id="_矩形" data-name="矩形" class="cls-1" y="0" width="171" height="48"/>
            <g class="cls-21">
              <rect class="cls-18" x="53" y="10.3" width="14.7" height="15.6"/>
            </g>
            <g class="cls-9">
              <rect class="cls-18" x="72.1" y="9.6" width="16" height="16.2"/>
            </g>
            <g class="cls-12">
              <rect class="cls-18" x="92.2" y="9.7" width="16.3" height="15.6"/>
            </g>
            <g class="cls-10">
              <rect class="cls-18" x="112.5" y="9.9" width="15.6" height="15.3"/>
            </g>
            <g class="cls-11">
              <rect class="cls-18" x="53.6" y="30.6" width="5.3" height="5.5"/>
            </g>
            <g class="cls-17">
              <rect class="cls-18" x="62.5" y="30.7" width="1.4" height="5.5"/>
            </g>
            <g class="cls-14">
              <rect class="cls-18" x="67.5" y="31.9" width="3.6" height="4.2"/>
            </g>
            <g class="cls-13">
              <rect class="cls-18" x="74.5" y="32" width="3.9" height="5.8"/>
            </g>
            <g class="cls-16">
              <rect class="cls-18" x="82.1" y="32" width="2.6" height="4.2"/>
            </g>
            <g class="cls-15">
              <rect class="cls-18" x="87.8" y="32" width="3.6" height="4.2"/>
            </g>
            <g class="cls-4">
              <rect class="cls-18" x="95" y="30.7" width="1.4" height="5.5"/>
            </g>
            <g class="cls-2">
              <rect class="cls-18" x="104.9" y="30.5" width="4.7" height="5.8"/>
            </g>
            <g class="cls-8">
              <rect class="cls-18" x="112.9" y="32" width="4" height="4.3"/>
            </g>
            <g class="cls-6">
              <rect class="cls-18" x="120.4" y="30.4" width="1.2" height="5.7"/>
            </g>
            <g class="cls-7">
              <rect class="cls-18" x="125.1" y="30.4" width="3.9" height="5.8"/>
            </g>
            <g class="cls-5">
              <rect class="cls-19" x="6" y="5.7" width="26.9" height="36.4"/>
            </g>
            <g class="cls-3">
              <rect class="cls-20" x="19.6" y="5.9" width="29" height="36.5"/>
            </g>
          </g>
        </g>
      </g>
    </g>
  </g>
</svg>