<?xml version="1.0" encoding="UTF-8"?>
<svg width="40px" height="40px" viewBox="0 0 40 40" version="1.1" xmlns="http://www.w3.org/2000/svg" xmlns:xlink="http://www.w3.org/1999/xlink">
    <title>编组 81</title>
    <g id="页面-1" stroke="none" stroke-width="1" fill="none" fill-rule="evenodd">
        <g id="CRM运营管理" transform="translate(-1654.000000, -241.000000)">
            <g id="编组-28备份-5" transform="translate(1643.000000, 216.000000)">
                <g id="编组-81" transform="translate(11.000000, 25.000000)">
                    <rect id="矩形" x="0" y="0" width="40" height="40"></rect>
                    <g id="编组备份" transform="translate(6.000000, 6.000000)">
                        <g id="编组-80" fill="#000000" fill-rule="nonzero">
                            <path d="M4.72266083,3.51402478 C7.2799167,1.24526485 10.5813846,-0.00523943328 13.9999827,1.6501057e-05 C21.7326398,1.6501057e-05 27.9999828,6.26735163 27.9999828,14 C28.0044786,16.8616671 27.127889,19.6553452 25.4893019,22.0014478 L21.6999732,14 L25.1999689,14 C25.1998629,9.44499804 22.4411352,5.34378579 18.2221974,3.62662329 C14.0032596,1.90946079 9.16461188,2.9184425 5.98359261,6.17868516 L4.72359418,3.51589145 L4.7217275,3.51402478 L4.72266083,3.51402478 Z M23.2773046,24.4859752 C20.7200487,26.7547352 17.4185808,28.0052394 13.9999827,27.9999835 C6.26732561,27.9999835 0,21.7326484 0,14 C0,11.0245404 0.92866551,8.26654689 2.51066356,5.99948559 L6.29999223,14 L2.79999653,14 C2.8001025,18.555002 5.55883022,22.6562142 9.777768,24.3733767 C13.9967058,26.0905392 18.8353535,25.0815575 22.0163728,21.8213148 L23.2763713,24.4850419 L23.2782379,24.4859752 L23.2773046,24.4859752 Z" id="形状"></path>
                            <polyline id="路径-2" transform="translate(14.500000, 12.250000) rotate(-180.000000) translate(-14.500000, -12.250000) " points="10 10 14.5 14.5 19 10"></polyline>
                            <polyline id="路径-2备份" transform="translate(14.500000, 15.597702) rotate(-180.000000) translate(-14.500000, -15.597702) " points="10 13.3477019 14.5 17.8477019 19 13.3477019"></polyline>
                        </g>
                        <g id="编组-77" transform="translate(14.500000, 13.923851) rotate(-180.000000) translate(-14.500000, -13.923851) translate(10.000000, 10.000000)"></g>
                    </g>
                </g>
            </g>
        </g>
    </g>
</svg>