<?xml version="1.0" encoding="UTF-8"?>
<svg width="40px" height="40px" viewBox="0 0 40 40" version="1.1" xmlns="http://www.w3.org/2000/svg" xmlns:xlink="http://www.w3.org/1999/xlink">
    <title>编组 78</title>
    <g id="页面-1" stroke="none" stroke-width="1" fill="none" fill-rule="evenodd">
        <g id="CRM运营管理" transform="translate(-1391.000000, -242.000000)">
            <g id="编组-28备份-4" transform="translate(1380.000000, 217.000000)">
                <g id="编组-79" transform="translate(11.000000, 25.000000)">
                    <rect id="矩形" x="0" y="0" width="40" height="40"></rect>
                    <path d="M10.7226608,9.51402478 C13.2799167,7.24526485 16.5813846,5.99476057 19.9999827,6.0000165 C27.7326398,6.0000165 33.9999828,12.2673516 33.9999828,20 C34.0044786,22.8616671 33.127889,25.6553452 31.4893019,28.0014478 L27.6999732,20 L31.1999689,20 C31.1998629,15.444998 28.4411352,11.3437858 24.2221974,9.62662329 C20.0032596,7.90946079 15.1646119,8.9184425 11.9835926,12.1786852 L10.7235942,9.51589145 L10.7217275,9.51402478 L10.7226608,9.51402478 Z M29.2773046,30.4859752 C26.7200487,32.7547352 23.4185808,34.0052394 19.9999827,33.9999835 C12.2673256,33.9999835 6,27.7326484 6,20 C6,17.0245404 6.92866551,14.2665469 8.51066356,11.9994856 L12.2999922,20 L8.79999653,20 C8.8001025,24.555002 11.5588302,28.6562142 15.777768,30.3733767 C19.9967058,32.0905392 24.8353535,31.0815575 28.0163728,27.8213148 L29.2763713,30.4850419 L29.2782379,30.4859752 L29.2773046,30.4859752 Z" id="形状" fill="#000000" fill-rule="nonzero"></path>
                    <g id="编组备份" transform="translate(6.000000, 6.000000)"></g>
                    <polyline id="路径-2" fill="#000000" points="15.2789715 20.2840997 19.7789715 24.7840997 24.2789715 20.2840997"></polyline>
                    <polyline id="路径-2备份" fill="#000000" points="15.2789715 16.9363978 19.7789715 21.4363978 24.2789715 16.9363978"></polyline>
                </g>
            </g>
        </g>
    </g>
</svg>