<?xml version="1.0" encoding="UTF-8"?>
<svg width="40px" height="40px" viewBox="0 0 40 40" version="1.1" xmlns="http://www.w3.org/2000/svg" xmlns:xlink="http://www.w3.org/1999/xlink">
    <title>编组 45备份 2</title>
    <g id="页面-1" stroke="none" stroke-width="1" fill="none" fill-rule="evenodd">
        <g id="CRM运营管理" transform="translate(-866.000000, -242.000000)">
            <g id="编组-76" transform="translate(866.000000, 242.000000)">
                <rect id="矩形" x="0" y="0" width="40" height="40"></rect>
                <g id="编组" transform="translate(11.000000, 8.000000)" stroke="#051C2C" stroke-linejoin="round" stroke-width="2.40000188">
                    <path d="M9.00006,24 C13.9409129,24 18,20.08452 18,15.05886 C18,13.82508 17.9372996,12.5025 17.253415,10.44696 C16.5695305,8.39148 16.4317695,8.12616 15.7086447,6.85674 C15.3997027,9.44724 13.7466916,10.52688 13.3267488,10.84956 C13.3267488,10.51386 12.3267822,6.80154 10.8106321,4.58034 C9.32226215,2.4 7.29808865,0.969552 6.11122074,0 C6.11122074,1.841862 5.59317729,4.58034 4.85127234,5.97564 C4.1093674,7.37094 3.97004647,7.42176 3.04334029,8.46012 C2.11669411,9.49848 1.69135128,9.81918 0.91644611,11.07906 C0.141576944,12.339 0,14.01708 0,15.25086 C0,20.27652 4.05920706,24 9.00006,24 Z" id="路径"></path>
                </g>
            </g>
        </g>
    </g>
</svg>