<?xml version="1.0" encoding="UTF-8"?>
<svg width="40px" height="40px" viewBox="0 0 40 40" version="1.1" xmlns="http://www.w3.org/2000/svg" xmlns:xlink="http://www.w3.org/1999/xlink">
    <title>编组 45</title>
    <g id="页面-1" stroke="none" stroke-width="1" fill="none" fill-rule="evenodd">
        <g id="CRM运营管理" transform="translate(-339.000000, -242.000000)">
            <g id="编组-28" transform="translate(328.000000, 217.000000)">
                <g id="编组-45" transform="translate(11.000000, 25.000000)">
                    <rect id="矩形" x="0" y="0" width="40" height="40"></rect>
                    <g id="编组" transform="translate(9.000000, 9.000000)" stroke="#051C2C" stroke-linecap="round" stroke-linejoin="round" stroke-width="2.31578947">
                        <path d="M20.8421053,10.2162162 L20.8421053,1.7027027 C20.8421053,0.762328378 20.0645211,0 19.1052632,0 L1.73684211,0 C0.777613158,0 0,0.762328378 0,1.7027027 L0,18.7297297 C0,19.6701324 0.777613158,20.4324324 1.73684211,20.4324324 L10.4210526,20.4324324" id="路径"></path>
                        <line x1="19.1346737" y1="15.3243243" x2="19.1346737" y2="21" id="路径"></line>
                        <line x1="22" y1="18.1336135" x2="16.2105263" y2="18.1336135" id="路径"></line>
                        <ellipse id="椭圆形" cx="10.4210526" cy="6.81081081" rx="2.89473684" ry="2.83783784"></ellipse>
                        <path d="M15.6315789,14.1891892 C15.6315789,11.6815054 13.2987684,9.64864865 10.4210526,9.64864865 C7.54333684,9.64864865 5.21052632,11.6815054 5.21052632,14.1891892" id="路径"></path>
                    </g>
                </g>
            </g>
        </g>
    </g>
</svg>